<svg version="1.1" id="Layer_1" xmlns="http://www.w3.org/2000/svg" xmlns:xlink="http://www.w3.org/1999/xlink" x="0px" y="0px"
	 width="100%" viewBox="0 0 218 212" enable-background="new 0 0 218 212" xml:space="preserve">
<path fill="#33594A" opacity="1.000000" stroke="none" 
	d="
M193.000000,213.000000 
	C128.666672,213.000000 64.833344,213.000000 1.000009,213.000000 
	C1.000006,142.333344 1.000006,71.666679 1.000003,1.000018 
	C73.666656,1.000012 146.333313,1.000012 218.999969,1.000006 
	C218.999985,71.666649 218.999985,142.333298 219.000000,212.999969 
	C210.500000,213.000000 202.000015,213.000000 193.000000,213.000000 
M124.823364,123.766571 
	C126.177422,122.365646 126.913689,121.146683 123.739975,120.824432 
	C123.602402,122.102028 123.464828,123.379616 123.327263,124.657211 
	C123.663483,124.442802 123.999702,124.228401 124.823364,123.766571 
M113.843040,125.957970 
	C115.876419,125.957970 117.909790,125.957970 121.511795,125.957970 
	C119.700912,123.307739 118.676407,121.808372 117.651901,120.309006 
	C116.432129,121.523476 115.212364,122.737938 113.449265,123.746262 
	C112.410454,122.605736 111.371643,121.465218 110.332817,120.324692 
	C109.319641,121.464653 108.342232,122.640213 107.267982,123.719383 
	C107.001663,123.986916 106.421501,123.942024 105.861870,123.331802 
	C104.503502,121.719376 103.145142,120.106949 101.786774,118.494514 
	C100.388023,120.684364 98.989265,122.874214 97.404114,125.355881 
	C100.996742,125.553459 103.495033,125.690857 106.877815,125.799263 
	C108.927597,125.803978 110.977379,125.808685 113.843040,125.957970 
M136.304596,120.929115 
	C134.306824,120.610794 132.309067,120.292473 128.947281,119.756805 
	C132.500809,123.102234 133.154892,128.840408 138.739929,124.856041 
	C141.690750,124.892830 144.879303,125.638855 147.520950,124.753319 
	C149.845261,123.974174 155.206131,123.268288 157.196213,125.316994 
	C157.642303,123.524895 158.055267,121.865791 158.604431,119.659584 
	C153.784561,120.393692 149.481155,121.049141 144.831589,121.757317 
	C143.196198,118.510689 139.899765,120.810471 136.304596,120.929115 
M156.100937,100.539612 
	C158.332230,100.571938 162.218719,99.967842 162.516922,100.743431 
	C164.055405,104.744713 164.674332,109.099556 165.890320,114.574806 
	C167.007736,113.318169 168.362228,112.452606 168.651520,111.315941 
	C169.088867,109.597488 168.810822,107.689827 168.789856,105.863098 
	C168.691971,97.331604 163.951706,94.428688 155.136703,98.316338 
	C154.685898,98.477997 153.979828,98.910767 153.821564,98.761742 
	C149.638962,94.823296 149.222504,97.609467 149.243576,101.274490 
	C149.261597,104.408867 149.075775,107.558365 149.343491,110.669922 
	C149.439529,111.786278 150.597260,112.811287 151.270447,113.877983 
	C151.967087,112.855156 153.008881,111.919975 153.295074,110.792931 
	C154.124725,107.525475 154.650986,104.180984 156.100937,100.539612 
M126.725494,101.797646 
	C128.995026,101.350731 131.507675,100.134239 133.442856,100.745628 
	C134.603058,101.112175 135.062759,104.294365 135.460724,106.286301 
	C135.780594,107.887405 135.288620,109.654457 135.630798,111.245972 
	C135.840607,112.221771 136.944000,113.005432 137.646118,113.875374 
	C138.315979,112.959114 139.483093,112.083405 139.561737,111.118935 
	C139.790512,108.313461 139.748276,105.458466 139.509720,102.648575 
	C139.125534,98.123260 136.178497,96.042137 131.996124,96.654243 
	C129.552124,97.011925 127.316139,98.790924 124.495407,99.336823 
	C122.148415,98.421112 119.830391,96.859169 117.447128,96.752304 
	C114.428207,96.616936 111.356255,97.664490 107.588707,98.328522 
	C107.588707,102.011887 107.479523,106.619453 107.681618,111.213326 
	C107.721634,112.122940 108.957458,112.979942 109.641838,113.861198 
	C110.294281,112.933273 111.366371,112.067924 111.515915,111.065002 
	C111.880592,108.619370 111.124718,105.764374 112.138359,103.731590 
	C113.007706,101.988182 115.617340,100.448875 117.627815,100.200836 
	C118.736176,100.064079 120.815651,102.577774 121.340981,104.247749 
	C122.008591,106.370079 121.353218,108.873955 121.658920,111.161102 
	C121.788628,112.131577 122.910942,112.969383 123.582138,113.867477 
	C124.268799,112.971481 125.423622,112.138641 125.554588,111.167694 
	C125.952187,108.220146 125.953819,105.219170 126.725494,101.797646 
M191.841064,109.234428 
	C191.841064,105.287193 191.841064,101.339966 191.841064,98.408913 
	C187.720322,97.733604 184.388657,97.010582 181.018524,96.681839 
	C177.137177,96.303207 173.146545,97.209801 171.940720,101.168121 
	C171.078827,103.997437 171.242325,107.883827 172.572769,110.459396 
	C174.503784,114.197548 178.745758,114.567932 182.737457,113.751953 
	C184.248383,113.443092 185.673996,112.717003 187.700409,111.975471 
	C186.785645,116.381195 184.155167,117.957443 180.803589,117.835480 
	C178.073059,117.736122 175.391785,116.605690 172.656281,116.111649 
	C171.895508,115.974243 171.019562,116.474411 170.196442,116.682083 
	C170.498276,117.496223 170.562698,118.735329 171.139374,119.057495 
	C175.902557,121.718521 180.961151,121.992546 186.035339,120.128860 
	C190.622604,118.444031 191.970337,114.674149 191.841064,109.234428 
M81.293625,112.913300 
	C83.881218,114.977798 86.248436,114.918015 89.686462,111.509178 
	C83.046631,112.173828 84.416412,108.231812 84.502663,105.342316 
	C84.632736,100.984360 83.370583,97.901871 78.718925,96.845100 
	C72.926491,95.529198 67.963234,97.241661 64.823044,102.956802 
	C68.273201,101.632912 70.539070,100.389610 72.953102,99.937592 
	C75.604057,99.441216 78.818077,98.628700 80.329941,103.012062 
	C76.974358,103.429047 73.978310,103.552071 71.111725,104.225876 
	C68.088402,104.936516 64.421585,105.665657 64.858780,109.946281 
	C65.293335,114.201019 68.953842,114.430229 72.090088,114.218567 
	C75.046326,114.019058 77.946190,112.984329 81.293625,112.913300 
M50.057545,94.266426 
	C54.482388,94.266426 58.907230,94.266426 63.547386,94.266426 
	C62.432835,90.268852 55.767612,89.398781 45.079144,91.112816 
	C45.079144,98.508904 45.079144,105.930656 45.079144,114.276016 
	C51.891411,112.894844 47.194092,106.766327 50.181240,104.066940 
	C53.006943,104.066940 56.157108,104.153954 59.295967,104.004112 
	C60.055138,103.967865 60.776962,103.149269 61.515953,102.690437 
	C60.740059,102.099266 59.991890,101.046516 59.183403,100.997955 
	C55.926628,100.802338 52.651222,100.916931 49.053173,100.916931 
	C49.169910,98.414696 49.253864,96.615173 50.057545,94.266426 
M101.005333,96.635864 
	C97.523590,97.037529 94.041847,97.439201 90.063026,97.898216 
	C90.063026,101.989983 89.892090,106.598373 90.191353,111.176018 
	C90.260330,112.231155 91.940857,113.180931 92.879776,114.179192 
	C93.328262,113.850883 93.776756,113.522575 94.225243,113.194267 
	C94.225243,110.235878 93.901810,107.226616 94.355835,104.339630 
	C94.598480,102.796722 95.911316,100.769547 97.243530,100.250633 
	C98.372330,99.810944 100.217545,101.240601 101.756813,101.813232 
	C102.673264,102.154160 103.611137,102.437515 104.539383,102.746750 
	C104.675179,101.726158 105.263016,100.430069 104.846260,99.746216 
	C104.128899,98.569122 102.785805,97.773369 101.005333,96.635864 
M146.341751,99.186188 
	C145.529251,98.474464 144.716766,97.762741 143.904282,97.051018 
	C143.364349,97.729385 142.382431,98.391739 142.357178,99.088753 
	C142.207779,103.212059 142.103088,107.356461 142.404938,111.462769 
	C142.479126,112.471771 144.123703,113.365311 145.046310,114.311935 
	C145.482941,114.005173 145.919571,113.698418 146.356201,113.391663 
	C146.356201,108.950462 146.356201,104.509254 146.341751,99.186188 
z"/>
<path fill="#EDE7D4" opacity="1.000000" stroke="none" 
	d="
M191.840637,109.688683 
	C191.970337,114.674149 190.622604,118.444031 186.035339,120.128860 
	C180.961151,121.992546 175.902557,121.718521 171.139374,119.057495 
	C170.562698,118.735329 170.498276,117.496223 170.196442,116.682083 
	C171.019562,116.474411 171.895508,115.974243 172.656281,116.111649 
	C175.391785,116.605690 178.073059,117.736122 180.803589,117.835480 
	C184.155167,117.957443 186.785645,116.381195 187.700409,111.975471 
	C185.673996,112.717003 184.248383,113.443092 182.737457,113.751953 
	C178.745758,114.567932 174.503784,114.197548 172.572769,110.459396 
	C171.242325,107.883827 171.078827,103.997437 171.940720,101.168121 
	C173.146545,97.209801 177.137177,96.303207 181.018524,96.681839 
	C184.388657,97.010582 187.720322,97.733604 191.841064,98.408913 
	C191.841064,101.339966 191.841064,105.287193 191.840637,109.688683 
M175.644104,102.354797 
	C174.149048,105.453270 174.268066,108.774155 177.651077,109.803841 
	C180.226120,110.587616 183.665314,109.903633 186.206406,108.745605 
	C187.208282,108.289032 187.673569,104.355156 186.883453,102.736984 
	C185.149887,99.186623 181.552063,99.441086 178.196533,100.349342 
	C177.449570,100.551537 176.835037,101.243011 175.644104,102.354797 
z"/>
<path fill="#EBE6D3" opacity="1.000000" stroke="none" 
	d="
M81.082245,112.615158 
	C77.946190,112.984329 75.046326,114.019058 72.090088,114.218567 
	C68.953842,114.430229 65.293335,114.201019 64.858780,109.946281 
	C64.421585,105.665657 68.088402,104.936516 71.111725,104.225876 
	C73.978310,103.552071 76.974358,103.429047 80.329941,103.012062 
	C78.818077,98.628700 75.604057,99.441216 72.953102,99.937592 
	C70.539070,100.389610 68.273201,101.632912 64.823044,102.956802 
	C67.963234,97.241661 72.926491,95.529198 78.718925,96.845100 
	C83.370583,97.901871 84.632736,100.984360 84.502663,105.342316 
	C84.416412,108.231812 83.046631,112.173828 89.686462,111.509178 
	C86.248436,114.918015 83.881218,114.977798 81.082245,112.615158 
M74.289124,111.275284 
	C77.181358,110.844460 79.891960,110.200081 80.132149,105.924324 
	C77.667290,106.132874 75.321266,106.039383 73.152405,106.614243 
	C71.624672,107.019188 70.337608,108.332176 68.943085,109.239723 
	C70.439156,109.941071 71.935226,110.642418 74.289124,111.275284 
z"/>
<path fill="#EBE6D3" opacity="1.000000" stroke="none" 
	d="
M126.109665,102.239006 
	C125.953819,105.219170 125.952187,108.220146 125.554588,111.167694 
	C125.423622,112.138641 124.268799,112.971481 123.582138,113.867477 
	C122.910942,112.969383 121.788628,112.131577 121.658920,111.161102 
	C121.353218,108.873955 122.008591,106.370079 121.340981,104.247749 
	C120.815651,102.577774 118.736176,100.064079 117.627815,100.200836 
	C115.617340,100.448875 113.007706,101.988182 112.138359,103.731590 
	C111.124718,105.764374 111.880592,108.619370 111.515915,111.065002 
	C111.366371,112.067924 110.294281,112.933273 109.641838,113.861198 
	C108.957458,112.979942 107.721634,112.122940 107.681618,111.213326 
	C107.479523,106.619453 107.588707,102.011887 107.588707,98.328522 
	C111.356255,97.664490 114.428207,96.616936 117.447128,96.752304 
	C119.830391,96.859169 122.148415,98.421112 124.846268,99.867744 
	C125.501312,101.012108 125.805489,101.625557 126.109665,102.239006 
z"/>
<path fill="#F9F1DD" opacity="1.000000" stroke="none" 
	d="
M49.697681,94.541046 
	C49.253864,96.615173 49.169910,98.414696 49.053173,100.916931 
	C52.651222,100.916931 55.926628,100.802338 59.183403,100.997955 
	C59.991890,101.046516 60.740059,102.099266 61.515953,102.690430 
	C60.776962,103.149269 60.055138,103.967865 59.295967,104.004112 
	C56.157108,104.153954 53.006943,104.066940 50.181240,104.066940 
	C47.194092,106.766327 51.891411,112.894844 45.079144,114.276016 
	C45.079144,105.930656 45.079144,98.508904 45.079144,91.112816 
	C55.767612,89.398781 62.432835,90.268852 63.547386,94.266426 
	C58.907230,94.266426 54.482388,94.266426 49.697681,94.541046 
z"/>
<path fill="#ECE7D3" opacity="1.000000" stroke="none" 
	d="
M101.355331,96.726715 
	C102.785805,97.773369 104.128899,98.569122 104.846260,99.746216 
	C105.263016,100.430069 104.675179,101.726158 104.539383,102.746750 
	C103.611137,102.437515 102.673264,102.154160 101.756813,101.813232 
	C100.217545,101.240601 98.372330,99.810944 97.243530,100.250633 
	C95.911316,100.769547 94.598480,102.796722 94.355835,104.339630 
	C93.901810,107.226616 94.225243,110.235878 94.225243,113.194267 
	C93.776756,113.522575 93.328262,113.850883 92.879776,114.179192 
	C91.940857,113.180931 90.260330,112.231155 90.191353,111.176018 
	C89.892090,106.598373 90.063026,101.989983 90.063026,97.898216 
	C94.041847,97.439201 97.523590,97.037529 101.355331,96.726715 
z"/>
<path fill="#E7E3CF" opacity="1.000000" stroke="none" 
	d="
M126.417580,102.018326 
	C125.805489,101.625557 125.501312,101.012108 125.091850,100.164581 
	C127.316139,98.790924 129.552124,97.011925 131.996124,96.654243 
	C136.178497,96.042137 139.125534,98.123260 139.509720,102.648575 
	C139.748276,105.458466 139.790512,108.313461 139.561737,111.118935 
	C139.483093,112.083405 138.315979,112.959114 137.646118,113.875374 
	C136.944000,113.005432 135.840607,112.221771 135.630798,111.245972 
	C135.288620,109.654457 135.780594,107.887405 135.460724,106.286301 
	C135.062759,104.294365 134.603058,101.112175 133.442856,100.745628 
	C131.507675,100.134239 128.995026,101.350731 126.417580,102.018326 
z"/>
<path fill="#ECE7D3" opacity="1.000000" stroke="none" 
	d="
M156.006577,98.022102 
	C163.951706,94.428688 168.691971,97.331604 168.789856,105.863098 
	C168.810822,107.689827 169.088867,109.597488 168.651520,111.315941 
	C168.362228,112.452606 167.007736,113.318169 165.890320,114.574806 
	C164.674332,109.099556 164.055405,104.744713 162.516922,100.743431 
	C162.218719,99.967842 158.332230,100.571938 155.742126,100.337654 
	C155.591064,99.431168 155.798828,98.726631 156.006577,98.022102 
z"/>
<path fill="#A1886E" opacity="1.000000" stroke="none" 
	d="
M136.965439,121.122223 
	C139.899765,120.810471 143.196198,118.510689 144.831589,121.757317 
	C149.481155,121.049141 153.784561,120.393692 158.604431,119.659584 
	C158.055267,121.865791 157.642303,123.524895 157.196213,125.316994 
	C155.206131,123.268288 149.845261,123.974174 147.520950,124.753319 
	C144.879303,125.638855 141.690750,124.892830 138.094498,124.902962 
	C136.636139,124.297501 135.823196,123.645126 135.005280,122.996315 
	C135.000275,122.999878 134.993790,123.009422 135.281738,122.938751 
	C136.034943,122.286133 136.500198,121.704178 136.965439,121.122223 
z"/>
<path fill="#E6E2CF" opacity="1.000000" stroke="none" 
	d="
M155.571640,98.169220 
	C155.798828,98.726631 155.591064,99.431168 155.339813,100.501205 
	C154.650986,104.180984 154.124725,107.525475 153.295074,110.792931 
	C153.008881,111.919975 151.967087,112.855156 151.270447,113.877983 
	C150.597260,112.811287 149.439529,111.786278 149.343491,110.669922 
	C149.075775,107.558365 149.261597,104.408867 149.243576,101.274490 
	C149.222504,97.609467 149.638962,94.823296 153.821564,98.761742 
	C153.979828,98.910767 154.685898,98.477997 155.571640,98.169220 
z"/>
<path fill="#E7E3CF" opacity="1.000000" stroke="none" 
	d="
M146.348969,99.627121 
	C146.356201,104.509254 146.356201,108.950462 146.356201,113.391663 
	C145.919571,113.698418 145.482941,114.005173 145.046310,114.311935 
	C144.123703,113.365311 142.479126,112.471771 142.404938,111.462769 
	C142.103088,107.356461 142.207779,103.212059 142.357178,99.088753 
	C142.382431,98.391739 143.364349,97.729385 143.904282,97.051025 
	C144.716766,97.762741 145.529251,98.474464 146.348969,99.627121 
z"/>
<path fill="#BF9577" opacity="1.000000" stroke="none" 
	d="
M105.993332,125.828247 
	C103.495033,125.690857 100.996742,125.553459 97.404114,125.355881 
	C98.989265,122.874214 100.388023,120.684364 101.786774,118.494514 
	C103.145142,120.106949 104.503502,121.719376 105.923637,123.984184 
	C105.988045,125.033798 105.990692,125.431023 105.993332,125.828247 
z"/>
<path fill="#B08E72" opacity="1.000000" stroke="none" 
	d="
M113.992584,123.952408 
	C115.212364,122.737938 116.432129,121.523476 117.651901,120.309006 
	C118.676407,121.808372 119.700912,123.307739 121.511795,125.957970 
	C117.909790,125.957970 115.876419,125.957970 113.564270,125.657532 
	C113.521187,124.888863 113.756882,124.420631 113.992584,123.952408 
z"/>
<path fill="#BB9376" opacity="1.000000" stroke="none" 
	d="
M113.720924,123.849335 
	C113.756882,124.420631 113.521187,124.888863 113.156326,125.585243 
	C110.977379,125.808685 108.927597,125.803978 106.435577,125.813759 
	C105.990692,125.431023 105.988045,125.033798 105.985504,124.338654 
	C106.421501,123.942024 107.001663,123.986916 107.267982,123.719383 
	C108.342232,122.640213 109.319641,121.464653 110.332825,120.324692 
	C111.371643,121.465218 112.410454,122.605736 113.720924,123.849335 
z"/>
<path fill="#BB9376" opacity="1.000000" stroke="none" 
	d="
M136.635010,121.025665 
	C136.500198,121.704178 136.034943,122.286133 135.253021,122.887482 
	C134.936356,122.906876 135.010269,122.992752 135.010269,122.992752 
	C135.823196,123.645126 136.636139,124.297501 137.791656,124.990112 
	C133.154892,128.840408 132.500809,123.102234 128.947281,119.756805 
	C132.309067,120.292473 134.306824,120.610794 136.635010,121.025665 
z"/>
<path fill="#A1886E" opacity="1.000000" stroke="none" 
	d="
M124.335922,124.014000 
	C123.999702,124.228401 123.663483,124.442802 123.327255,124.657211 
	C123.464828,123.379616 123.602402,122.102028 123.908447,121.290955 
	C124.163254,122.509659 124.249588,123.261826 124.335922,124.014000 
z"/>
<path fill="#3E6253" opacity="1.000000" stroke="none" 
	d="
M124.579636,123.890289 
	C124.249588,123.261826 124.163254,122.509659 124.042755,121.378830 
	C126.913689,121.146683 126.177422,122.365646 124.579636,123.890289 
z"/>
<path fill="#3A5F50" opacity="1.000000" stroke="none" 
	d="
M175.901825,102.031998 
	C176.835037,101.243011 177.449570,100.551537 178.196533,100.349342 
	C181.552063,99.441086 185.149887,99.186623 186.883453,102.736984 
	C187.673569,104.355156 187.208282,108.289032 186.206406,108.745605 
	C183.665314,109.903633 180.226120,110.587616 177.651077,109.803841 
	C174.268066,108.774155 174.149048,105.453270 175.901825,102.031998 
z"/>
<path fill="#3E6253" opacity="1.000000" stroke="none" 
	d="
M73.860214,111.309525 
	C71.935226,110.642418 70.439156,109.941071 68.943085,109.239731 
	C70.337608,108.332176 71.624672,107.019188 73.152405,106.614243 
	C75.321266,106.039383 77.667290,106.132874 80.132149,105.924324 
	C79.891960,110.200081 77.181358,110.844460 73.860214,111.309525 
z"/>
<path fill="#A1886E" opacity="1.000000" stroke="none" 
	d="
M135.005280,122.996315 
	C135.010269,122.992752 134.936356,122.906876 134.965073,122.958145 
	C134.993790,123.009422 135.000275,122.999878 135.005280,122.996315 
z"/>
</svg>